<svg width="64" height="64" viewBox="0 0 64 64" fill="none" xmlns="http://www.w3.org/2000/svg">
<g filter="url(#filter0_d_101_1)">
<path d="M32 0C18.7452 0 8 10.7452 8 24C8 33.645 16.3636 46.8341 30.5381 55.5886C31.3518 56.1017 32.6482 56.1017 33.4619 55.5886C47.6364 46.8341 56 33.645 56 24C56 10.7452 45.2548 0 32 0Z" fill="#10B981"/>
<path d="M32 0C18.7452 0 8 10.7452 8 24C8 33.645 16.3636 46.8341 30.5381 55.5886C31.3518 56.1017 32.6482 56.1017 33.4619 55.5886C47.6364 46.8341 56 33.645 56 24C56 10.7452 45.2548 0 32 0Z" fill="url(#paint0_radial_101_1)" fill-opacity="0.5"/>
</g>
<path d="M32 34C37.5228 34 42 29.5228 42 24C42 18.4772 37.5228 14 32 14C26.4772 14 22 18.4772 22 24C22 29.5228 26.4772 34 32 34Z" fill="black" fill-opacity="0.3"/>
<path d="M32 32C36.4183 32 40 28.4183 40 24C40 19.5817 36.4183 16 32 16C27.5817 16 24 19.5817 24 24C24 28.4183 27.5817 32 32 32Z" fill="white"/>
<path d="M34.6667 22.6667V20H29.3333V28H31.3333V24.6667H34C34.7333 24.6667 35.3333 24.0667 35.3333 23.3333C35.3333 22.96 35.0533 22.6667 34.6667 22.6667Z" fill="#10B981"/>
<defs>
<filter id="filter0_d_101_1" x="0" y="0" width="64" height="64" filterUnits="userSpaceOnUse" color-interpolation-filters="sRGB">
<feFlood flood-opacity="0" result="BackgroundImageFix"/>
<feColorMatrix in="SourceAlpha" type="matrix" values="0 0 0 0 0 0 0 0 0 0 0 0 0 0 0 0 0 0 127 0" result="hardAlpha"/>
<feOffset dy="4"/>
<feGaussianBlur stdDeviation="4"/>
<feComposite in2="hardAlpha" operator="out"/>
<feColorMatrix type="matrix" values="0 0 0 0 0.0627451 0 0 0 0 0.72549 0 0 0 0 0.505882 0 0 0 0.4 0"/>
<feBlend mode="normal" in2="BackgroundImageFix" result="effect1_dropShadow_101_1"/>
<feBlend mode="normal" in="SourceGraphic" in2="effect1_dropShadow_101_1" result="shape"/>
</filter>
<radialGradient id="paint0_radial_101_1" cx="0" cy="0" r="1" gradientUnits="userSpaceOnUse" gradientTransform="translate(32 24) rotate(90) scale(24 24)">
<stop stop-color="white" stop-opacity="0.5"/>
<stop offset="1" stop-color="white" stop-opacity="0"/>
</radialGradient>
</defs>
</svg>