<svg xmlns="http://www.w3.org/2000/svg" viewBox="0 0 1147.32 541.8"><defs><style>.cls-1{fill:#474747;}.cls-2{fill:#fecd01;}</style></defs><g id="Layer_2" data-name="Layer 2"><g id="Layer_1-2" data-name="Layer 1"><path id="font_0_46" data-name="font 0 46" class="cls-1" d="M33.5,509.06l19.35,31.76H36.2L25.45,521l-3.82,5.68v14.18H7.14V496.49H3.6l3.54-12.73H21.63v20.3l12.42-20.3H50.7Z"/><path id="font_0_40" data-name="font 0 40" class="cls-1" d="M133.93,506.41v12.73H112.42v8.94h26.5v12.74h-41V496.49H94.38l3.54-12.73h40.31l-3.54,12.73H112.42v9.92Z"/><path id="font_0_40-2" data-name="font 0 40" class="cls-1" d="M222.44,506.41v12.73H200.93v8.94h26.5v12.74h-41V496.49H182.9l3.53-12.73h40.31l-3.54,12.73H200.93v9.92Z"/><path id="font_0_51" data-name="font 0 51" class="cls-1" d="M300.48,483.76q8.73,0,13.53,7.72a23.11,23.11,0,0,1,3.33,12.28q0,8.72-5.28,13.94a15.75,15.75,0,0,1-11.58,4.47h-11v18.65H275V496.49h-3.54L275,483.76h25.53m-11,12.73v12.95h6.73a5.12,5.12,0,0,0,5.13-3.79,8.45,8.45,0,0,0,.42-2.65c0-2.62-.91-4.52-2.71-5.68a5.19,5.19,0,0,0-2.84-.83Z"/><path id="font_0_40-3" data-name="font 0 40" class="cls-1" d="M400,506.41v12.73h-21.5v8.94H405v12.74H364V496.49h-3.54L364,483.76h40.3l-3.53,12.73H378.46v9.92Z"/><path id="font_0_53" data-name="font 0 53" class="cls-1" d="M478,483.76a15.19,15.19,0,0,1,13.6,7.57,22.3,22.3,0,0,1,3.26,11.9q0,8.34-5.07,13.56a15.74,15.74,0,0,1-5.06,3.41l12.56,20.62H480.71l-10.55-19.4H467v19.4h-14.5V496.49h-3.54l3.54-12.73H478m-11,12.73v12.2h6.73a5,5,0,0,0,5.13-3.64,7.4,7.4,0,0,0,.42-2.43,6,6,0,0,0-2.64-5.38,5.76,5.76,0,0,0-2.91-.75Z"/><path id="font_0_54" data-name="font 0 54" class="cls-1" d="M562.21,482.77q9.22,0,15.19,5.83a18.86,18.86,0,0,1,5.13,9.86l-14,4.47c0-3.24-1.23-5.43-3.68-6.6a6,6,0,0,0-2.63-.6,6.39,6.39,0,0,0-5.62,2.57,3.29,3.29,0,0,0-.7,1.9q0,3,4.44,4.62a37.68,37.68,0,0,0,5.21,1.44q8.38,2.13,11.93,4.55,6.45,4.55,6.45,13.79,0,7.57-7.2,12.65a25.93,25.93,0,0,1-15.1,4.55q-9.92,0-16.28-5.83a19,19,0,0,1-5.47-9.86L554,521.64a6.48,6.48,0,0,0,4.16,6.44,8.37,8.37,0,0,0,3.54.76c3.38,0,5.71-.88,7-2.65a2.81,2.81,0,0,0,.62-1.67q0-3.25-4.44-4.92-.69-.23-7.91-2.12-8.88-2.28-12.34-6.67-3.27-4.17-3.27-10.76,0-7.67,6.87-12.81A23.11,23.11,0,0,1,562.21,482.77Z"/><path id="font_0_48" data-name="font 0 48" class="cls-1" d="M723.41,523.39l9.92-39.63H753v57.06h-14.5V512.1l-6.45,28.72H714.67l-6.45-28.72v28.72h-14.5V496.49h-3.54l3.54-12.73h19.77Z"/><path id="font_0_36" data-name="font 0 36" class="cls-1" d="M823.71,501.26l-5.06,20.16h10.12l-5.06-20.16M815,483.76h17.41l16.44,57.06H833.63l-1.73-6.67H815.52l-1.73,6.67H798.6Z"/><path id="font_0_49" data-name="font 0 49" class="cls-1" d="M923.55,483.76h14.5v57.06h-14.5L909.4,512.63v28.19H894.9V496.49h-3.54l3.54-12.73h14.5l14.15,28.18Z"/><path id="font_0_44" data-name="font 0 44" class="cls-1" d="M987,483.76h14.5v57.06H987Z"/><path id="font_0_36-2" data-name="font 0 36" class="cls-1" d="M1072.13,501.26l-5.06,20.16h10.12l-5.06-20.16m-8.74-17.5h17.41l16.44,57.06h-15.19l-1.73-6.67h-16.38l-1.73,6.67H1047Z"/><path class="cls-1" d="M80.12,383.35l-9.53-8.6L.77,309.16v77.75H2.25v.8H.32v11.75h0v46.29c0,.49.08,1,.13,1.46,32.48,0,95.17.32,150.43,0L79.76,383.38l.36,0"/><path class="cls-2" d="M261.32,300.46c-2.77,1.54-5.45,3.18-8.09,4.88.76,10.22.08,18.31-1.48,30.76-.85,6.83,2.58,40.73-69.23,41.88-41.8.67-77.48,3.15-102.4,5.37l-.36,0,71.13,63.83c33.12-.89,59.83,1.71,94.88-2.57,37-4.51,70.48-23.7,81-44.91V263.43L324,260.5c-21.14,12.71-40.57,27.67-62.68,40"/><path class="cls-1" d="M688.1,126.46l99.22-82H354l-.69,76,62.44,1.12V450.43h86.06V123.12Z"/><path class="cls-2" d="M783.11,277.35,720.84,159l-33.75.86H656.4l-.94-.49-58.4,111L596,170l-83-32.4V450.43h86L688.6,280.35l91.63,171.09h86.06v-407l-80,39.48Z"/><path class="cls-1" d="M1013.08,366.4H968.54V130.51h44.54Zm86.24-321.94H882.48v408h216.66V130.51h.18Z"/><path class="cls-1" d="M336.32,83.46h0a39,39,0,0,0-39-39h-2.68v0H2.65c-.94.39-1.83.79-2.65,1.21V163.65l76.61,69.61c.5-35-.57-74.12-.07-109.13a561.7,561.7,0,0,1,57.86,1.12s41.28.59,102.29,1.5c5.59.09,16.14,1.44,18,7,1.61,4.87-4.28,10.94-7,13.47-8.72,6.67-20,17.09-35.93,25.45-37.77,19.85-62.59,34.27-79.34,43.91-9.13,5.26-37.94,25.45-60.68,41.29L.77,192.29v82.37l81.34,74.87c5.24-2.94,10.25-7,15.43-10.11C108,333,120,323.63,130.59,316.14,161.52,296.88,207.94,268,231.7,252.5c81.44-53,88.24-75,92.62-85,3.2-7.37,17.67-45.31,14.11-74.08a22,22,0,0,0-2.11-9.92"/><path class="cls-1" d="M1125.43,39.4a17.51,17.51,0,1,1,12.38-5.13,17.56,17.56,0,0,1-12.38,5.13m0-39.4a21.89,21.89,0,1,0,15.48,6.41A21.85,21.85,0,0,0,1125.43,0"/><path class="cls-1" d="M1127.62,19.7h-6.57V15.32h6.57a2.19,2.19,0,1,1,0,4.38m6.57-2.19a6.59,6.59,0,0,0-6.57-6.57h-10.95V32.83h4.38V24.08h3.2l5.84,8.75h5.26l-6-9a6.58,6.58,0,0,0,4.86-6.3"/></g></g></svg>